<svg width="449" height="303" viewBox="0 0 449 303" fill="none" xmlns="http://www.w3.org/2000/svg">
<path fill-rule="evenodd" clip-rule="evenodd" d="M441.982 1.04105C438.977 1.70213 435.122 4.11439 434.33 5.82801C433.997 6.5496 432.001 8.47419 429.894 10.1058C427.788 11.7374 422.186 17.51 417.446 22.9341C412.005 29.1604 407.749 33.4891 405.9 34.6764C404.288 35.7107 402.393 37.2584 401.688 38.1158C400.983 38.9737 396.508 42.516 391.743 45.9873C386.979 49.4591 378.685 56.0942 373.313 60.732C367.94 65.3693 357.455 73.9615 350.01 79.8249C342.567 85.6889 334.817 91.9068 332.79 93.6421C330.763 95.3781 327.649 97.6114 325.87 98.6048C324.092 99.5993 321.702 101.151 320.56 102.055C318.524 103.666 309.957 107.868 279.207 122.343C250.388 135.908 242.971 140.662 223.839 157.832C199.027 180.099 187.807 188.705 182.978 189.179C179.891 189.481 178.656 188.396 170.986 178.636C156.336 159.992 147.809 152.244 130.895 142.204C112.8 131.463 47.3026 89.3945 36.4435 81.5389C26.5182 74.3593 21.2104 69.7137 5.17155 54.1708C-2.03827 47.1839 -1.16532 51.9642 6.53309 61.6301C23.1298 82.4671 27.4254 86.6744 41.7114 96.077C57.8426 106.695 61.5773 109.6 64.0957 113.493C65.8666 116.229 69.6283 119.869 80.4681 129.337L94.5413 141.629L110.351 162.984C121.285 177.752 126.807 184.694 128.258 185.495C130.009 186.459 130.252 186.913 129.725 188.228C129.356 189.148 129.519 189.948 130.115 190.147C132.426 190.916 137.011 193.172 137.048 193.558C137.092 194.012 98.8679 190.187 92.7201 189.123C85.7194 187.91 77.146 184.506 61.73 176.819C58.8524 175.384 57.4417 176.799 59.3817 179.175C62.1673 182.585 65.0016 184.434 75.0741 189.407C84.1058 193.866 85.1365 194.534 85.9662 196.463C86.7096 198.191 87.8683 199.216 92.1118 201.896C94.9882 203.714 99.7185 207.155 102.624 209.545C106.218 212.501 108.868 214.174 110.917 214.781C113.607 215.578 116.333 217.72 136.408 234.799C162.076 256.635 162.543 256.936 178.478 261.913C190.199 265.572 200.559 269.614 212.5 275.186C223.4 280.272 228.63 282.009 234.702 282.561C242.937 283.309 247.382 286.484 254.015 296.36C256.471 300.017 258.719 302.985 259.011 302.956C260.036 302.856 261.448 297.96 261.446 294.51C261.446 292.515 260.321 288.385 258.814 284.843C255.983 278.189 255.683 275.352 257.364 271.137C257.955 269.658 258.369 267.139 258.286 265.538C258.129 262.498 255.981 257.284 254.303 255.867C249.808 252.072 246.781 240.241 247.768 230.328L248.276 225.221L256.265 215.81C275.403 193.261 298.313 178.467 332.13 166.821C345.879 162.086 348.53 160.387 360.6 148.588C371.489 137.944 375.07 134.832 384.934 127.437C396.034 119.116 403.763 110.806 409.943 100.547C412.303 96.628 417.044 89.4738 420.479 84.6478C430.728 70.2441 435.602 61.3289 440.619 47.8057C444.647 36.9492 448.596 15.31 448.095 6.84212C447.838 2.50758 445.482 0.270893 441.982 1.04105Z" fill="#C0CFD6"/>
</svg>
