<svg width="24" height="26" viewBox="0 0 24 26" fill="none" xmlns="http://www.w3.org/2000/svg">
<path fill-rule="evenodd" clip-rule="evenodd" d="M20.6366 0.132991C20.5116 0.270376 20.3881 0.625321 20.4372 0.706207C20.4522 0.7309 20.4301 0.930423 20.3882 1.14961C20.3462 1.36879 20.2993 1.93683 20.2841 2.41188C20.2662 2.96722 20.231 3.34401 20.1856 3.46717C20.1467 3.57254 20.115 3.73843 20.115 3.83588C20.115 3.93333 20.0361 4.31581 19.9398 4.6859C19.8435 5.05599 19.7078 5.7017 19.6381 6.12087C19.5686 6.54004 19.4015 7.39742 19.2668 8.02617C19.1322 8.65492 18.9959 9.31797 18.9639 9.49961C18.8842 9.9521 18.5554 11.0026 18.3894 11.3349C18.3144 11.4852 18.1017 11.9397 17.9168 12.3449C17.7319 12.7501 17.4008 13.4722 17.1809 13.9496C16.4513 15.534 16.2705 16.1333 16.0229 17.7892C15.693 19.9956 15.4988 20.8569 15.2623 21.1629C15.166 21.2876 15.1361 21.2961 14.8787 21.2722C14.7252 21.258 14.3358 21.1869 14.0133 21.1143C12.5863 20.7931 11.8603 20.7593 10.6101 20.9559C9.34385 21.155 4.15351 21.7851 3.24455 21.8501C2.39879 21.9106 1.53021 21.8898 0.586569 21.7865C0.291337 21.7542 0.0343882 21.7434 0.0155213 21.7626C-0.06354 21.8432 0.164709 21.962 0.579931 22.0564C1.42809 22.2494 2.64466 22.4557 2.93125 22.4551C3.08983 22.4548 3.52282 22.422 3.89342 22.3821C5.14702 22.2473 5.63681 22.2346 5.91487 22.3299C6.10778 22.396 6.44758 22.4235 7.41224 22.4513L8.66005 22.4872L9.85795 22.799C11.5463 23.2384 11.9735 23.3339 12.2212 23.3271C12.3984 23.3222 12.443 23.3397 12.4641 23.4219C12.4783 23.4773 12.4946 23.5226 12.5002 23.5226C12.5059 23.5226 12.6152 23.4863 12.7432 23.4419C12.8712 23.3975 13.0024 23.3702 13.0348 23.3812C13.1208 23.4104 10.7896 24.9756 10.3667 25.1726C9.89154 25.394 9.47063 25.5323 8.83474 25.6759C8.4628 25.76 8.30622 25.8174 8.29529 25.8738C8.28346 25.935 8.34236 25.9613 8.55069 25.9878C8.83619 26.0241 9.07527 25.9867 9.90497 25.7759C10.3143 25.6719 10.421 25.6606 10.5142 25.7114C10.5971 25.7566 10.7646 25.7617 11.141 25.7307C11.4236 25.7075 11.8183 25.6944 12.018 25.7016C12.2634 25.7105 12.4516 25.6874 12.5982 25.6304C12.8695 25.5249 13.0771 25.5198 15.0488 25.5709C16.9125 25.6191 17.0277 25.6046 18.0494 25.1929C18.9793 24.8183 19.599 24.6097 20.3763 24.4095C21.1998 24.1975 21.464 24.0955 21.8754 23.831C22.4087 23.4882 22.7394 23.4734 23.5708 23.7553C23.7874 23.8287 23.9773 23.8757 23.993 23.8598C24.0493 23.8025 23.7526 23.2761 23.5951 23.1538C23.5065 23.085 23.2994 22.9593 23.1346 22.8743C22.7774 22.6901 22.6561 22.5609 22.5408 22.2421C22.4097 21.8796 22.0232 21.5937 21.6622 21.5922C21.4736 21.5914 20.9683 21.2781 20.6833 20.9853C20.2937 20.5851 20.1144 20.2333 20.1109 19.8623C20.0902 17.6843 20.6348 15.8449 21.9711 13.5799C22.1886 13.2113 22.4103 12.7828 22.4639 12.6277C22.5193 12.4671 22.6142 11.8916 22.6843 11.291C22.8242 10.0915 22.8441 9.97537 23.0651 9.06774C23.2072 8.48395 23.226 8.32462 23.2268 7.69592C23.2273 7.3047 23.1915 6.72168 23.1471 6.40032C23.1028 6.07895 23.0521 5.56452 23.0346 5.25713C22.9763 4.23559 22.7488 3.1614 22.4061 2.29C22.1603 1.66501 21.2113 0.0985429 21.0373 0.0305618C20.8791 -0.0312716 20.758 -0.000329535 20.6366 0.132991Z" fill="#F4F4EF"/>
</svg>
