<svg width="179" height="160" viewBox="0 0 179 160" fill="none" xmlns="http://www.w3.org/2000/svg">
<path fill-rule="evenodd" clip-rule="evenodd" d="M65.8101 1.19828C64.0981 2.39425 64.0958 2.43504 64.0958 27.365V47.802C64.0958 50.3046 62.067 52.3334 59.5644 52.3334H59.1414C56.8194 52.3334 54.8851 50.5531 54.6929 48.2391C54.3035 43.5544 52.4959 40.6161 48.9415 38.8906C41.5614 35.3073 34.0202 40.2921 34.0202 48.7532C34.0202 50.6656 32.5114 52.2374 30.6006 52.3156L27.4028 52.4465C21.9375 52.6712 20.5957 52.9783 19.6911 54.212C18.8235 55.3964 18.5968 59.2622 18.5968 72.875V84.3753C18.5968 87.5061 16.0588 90.0442 12.9279 90.0442C5.88639 90.0442 2.68835 91.1078 1.22236 93.9376C-0.273713 96.8244 -0.458794 131.518 1.01414 132.988C1.59097 133.564 4.44353 133.912 8.58162 133.912H10.4142C13.0784 133.912 15.2455 136.058 15.2715 138.722C15.3317 144.869 17.5179 149.626 22.3616 154.147C32.7855 163.878 49.0557 161.129 55.9592 148.47C57.7344 145.215 58.1771 143.41 58.2372 139.177C58.2787 136.263 60.6521 133.923 63.5659 133.922L83.9534 133.918L104.785 133.913C107.442 133.912 109.598 136.064 109.602 138.722C109.613 144.993 112.028 150.232 116.871 154.487C127.503 163.827 143.211 160.951 150.089 148.406C151.932 145.044 152.344 143.363 152.367 139.111C152.382 136.239 154.714 133.919 157.586 133.918L163.983 133.916C173.219 133.913 175.92 133.669 177.286 132.714C178.36 131.963 179 130.735 179 129.425V67.0313C179 5.5381 178.934 2.48814 177.59 1.2737C176.306 0.113902 171.322 0 121.852 0C73.929 0 67.3216 0.141608 65.8101 1.19828ZM172.831 10.7661C172.831 13.3164 170.772 15.3884 168.222 15.4047L141.406 15.5761L112.289 15.7622C111.012 15.7704 109.98 16.8083 109.98 18.0858C109.98 20.2522 110.183 20.4092 113.258 20.6309C115.105 20.7645 116.535 22.302 116.535 24.154V29.2451V34.3363C116.535 36.1882 115.105 37.7258 113.258 37.8593C110.449 38.0618 109.943 38.365 109.714 39.9765C109.175 43.7861 109.865 43.8677 142.517 43.8677H166.831C170.144 43.8677 172.831 46.554 172.831 49.8677V61.5687V73.2697C172.831 76.5834 170.144 79.2697 166.831 79.2697H160.145C148.937 79.2697 147.372 79.4244 146.714 80.5965C146.242 81.4384 146.238 82.4235 146.703 83.2901C147.36 84.5145 148.76 84.6569 160.133 84.6569H168.213C170.763 84.6569 172.831 86.7243 172.831 89.2746C172.831 91.8248 170.763 93.8922 168.213 93.8922H147.853C118.992 93.8922 122.619 92.8225 114.672 103.678C109.035 111.378 108.343 114.096 111.916 114.512C113.566 114.705 114.65 113.655 119.242 107.418L122.836 102.537C123.966 101.003 125.757 100.096 127.662 100.095L148.732 100.074L166.825 100.055C170.141 100.052 172.831 102.739 172.831 106.055V108.13V110.22C172.831 113.53 170.15 116.215 166.84 116.22L165.697 116.222C157.213 116.234 155.302 116.653 154.67 118.64C153.703 121.683 155.499 122.368 164.442 122.368H170.137C171.625 122.368 172.831 123.574 172.831 125.061C172.831 126.549 171.625 127.755 170.137 127.755H161.574H152.987C151.287 127.755 149.668 127.034 148.53 125.771L146.944 124.012C138.16 114.261 122.747 114.425 114.428 124.356L113.38 125.608C112.24 126.969 110.556 127.755 108.78 127.755H90.9232H72.9434C71.4642 127.755 70.2651 126.556 70.2651 125.077C70.2651 123.592 71.4587 122.383 72.9432 122.365L86.6525 122.191L101.14 122.007C102.233 121.993 103.153 121.184 103.306 120.102C103.804 116.581 102.114 116.211 85.5412 116.211H76.2651C72.9514 116.211 70.2651 113.525 70.2651 110.211V110.054V109.897C70.2651 106.583 72.9514 103.897 76.2651 103.897H86.0695H98.788C100.724 103.897 102.541 102.963 103.668 101.388L103.999 100.925C105.168 99.2895 107.86 94.9735 109.98 91.3325L112.134 87.6349C113.191 85.8207 115.119 84.6908 117.218 84.6556L126.946 84.4922L137.747 84.3109C139.029 84.2894 140.056 83.2446 140.056 81.9633C140.056 80.6882 139.022 79.6545 137.747 79.6545H125.061H113.459C111.353 79.6545 109.402 80.7584 108.317 82.5632L104.629 88.6974L100.941 94.8318C99.8561 96.6365 97.9045 97.7403 95.7989 97.7403H84.7284H76.2651C72.9514 97.7403 70.2651 95.054 70.2651 91.7403V51.9486V12.1569C70.2651 8.84315 72.9514 6.15687 76.2651 6.15687H121.548H168.221C170.767 6.15687 172.831 8.22047 172.831 10.7661ZM84.1462 16.2549C83.0858 16.6751 81.2327 17.9519 80.0289 19.0917C76.1114 22.7996 75.4374 25.0261 75.051 35.5305C74.7302 44.2379 74.5382 45.3199 73.2496 45.6562C71.199 46.1911 71.2769 50.0299 73.3498 50.571C74.3323 50.828 74.8922 51.6207 74.8922 52.7582C74.8922 55.7235 76.2972 58.4902 77.8033 58.4902C79.9518 58.4902 81.0615 56.9272 81.0615 53.9011C81.0615 51.7954 81.4641 50.9827 82.7966 50.3993C83.7637 49.9761 84.5318 48.9586 84.5318 48.1005C84.5318 47.2424 83.7637 46.225 82.7966 45.8017C81.5944 45.2753 81.0615 44.3833 81.0615 42.8957C81.0615 40.7669 81.08 40.7592 83.3365 41.9236C86.2422 43.4236 92.8218 43.4359 95.706 41.9475C96.7669 41.4002 98.0433 42.1073 98.142 43.2969L98.1738 43.6791C98.3812 46.1803 98.6927 46.5936 100.534 46.8045C102.251 47.0023 102.815 46.6367 103.503 44.8805C104.602 42.076 103.979 26.3522 102.669 23.8171C101.286 21.1442 97.9979 17.7495 95.5595 16.4781C93.1851 15.2398 87.008 15.119 84.1462 16.2549ZM93.1858 22.0662C98.8555 24.7514 99.2904 32.9477 93.937 36.2055C90.8153 38.1049 88.2735 38.1049 85.1518 36.2055C79.8662 32.9893 80.2302 24.8253 85.7818 22.0955C89.0616 20.4831 89.8359 20.48 93.1858 22.0662ZM131.959 29.2451V33.0838C131.959 35.6392 129.887 37.7108 127.332 37.7108C124.776 37.7108 122.705 35.6392 122.705 33.0838V29.2451V25.4064C122.705 22.851 124.776 20.7794 127.332 20.7794C129.887 20.7794 131.959 22.851 131.959 25.4064V29.2451ZM146.611 29.2836V33.3475C146.611 35.7615 144.587 37.6824 142.177 37.5569C139.671 37.4264 137.683 35.3963 137.606 32.8879L137.519 30.0724C137.396 26.0828 137.472 22.3602 137.688 21.7992C137.948 21.1227 139.515 20.7794 142.346 20.7794C144.701 20.7794 146.611 22.6891 146.611 25.0448V29.2836ZM162.034 29.2451V33.0838C162.034 35.6392 159.963 37.7108 157.407 37.7108C154.852 37.7108 152.78 35.6392 152.78 33.0838V29.2451V25.4064C152.78 22.851 154.852 20.7794 157.407 20.7794C159.963 20.7794 162.034 22.851 162.034 25.4064V29.2451ZM172.831 29.2451V35.3973C172.831 36.675 171.795 37.7108 170.517 37.7108C169.239 37.7108 168.204 36.675 168.204 35.3973V29.2451V23.0929C168.204 21.8152 169.239 20.7794 170.517 20.7794C171.795 20.7794 172.831 21.8152 172.831 23.0929V29.2451ZM86.9648 26.8047C85.3623 28.5717 85.34 30.3264 86.9 31.8841C89.239 34.2176 93.4002 32.5283 93.4002 29.2451C93.4002 27.4342 91.3929 25.3971 89.6091 25.3971C88.8565 25.3971 87.6666 26.0305 86.9648 26.8047ZM47.8742 45.3561C48.313 46.175 48.6724 48.0797 48.6724 49.5889C48.6724 51.1046 47.4437 52.3334 45.928 52.3334H43.9467H42.4946C40.7771 52.3334 39.4673 50.7968 39.7392 49.101C40.0237 47.3225 40.6314 45.4177 41.0887 44.8682C42.4051 43.2851 46.938 43.6114 47.8742 45.3561ZM64.0958 93.1226V123.824C64.0958 125.995 62.336 127.755 60.1651 127.755C56.4388 127.755 56.0587 127.56 52.8614 124.012C44.0778 114.261 28.6644 114.425 20.3458 124.356L19.2973 125.608C18.1572 126.969 16.473 127.755 14.6975 127.755H11.8784C8.77437 127.755 6.25809 125.239 6.25809 122.135V111.978V102.201C6.25809 98.8873 8.94438 96.201 12.2581 96.201H14.5867C20.0366 96.201 23.2354 95.8817 23.8407 95.2775C24.5078 94.6118 24.7662 89.3431 24.7662 76.4221V64.4902C24.7662 61.1765 27.4524 58.4902 30.7662 58.4902H44.431H58.0958C61.4095 58.4902 64.0958 61.1765 64.0958 64.4902V93.1226ZM32.4185 66.1271L31.926 66.6185C30.7981 67.7441 30.1643 69.2721 30.1643 70.8655V80.0393V89.2131C30.1643 90.8065 30.7982 92.3344 31.926 93.46L32.4185 93.9515C34.6726 96.201 34.6741 96.201 44.431 96.201C54.1878 96.201 54.1893 96.201 56.4435 93.9515L56.9359 93.46C58.0638 92.3344 58.6976 90.8065 58.6976 89.2131V80.0393V70.8655C58.6976 69.2721 58.0638 67.7441 56.9359 66.6185L56.4435 66.1271C54.1893 63.8775 54.1878 63.8775 44.431 63.8775C34.6741 63.8775 34.6726 63.8775 32.4185 66.1271ZM52.5282 80.0393V84.0442C52.5282 87.3579 49.842 90.0442 46.5282 90.0442H44.431H42.3337C39.02 90.0442 36.3337 87.3579 36.3337 84.0442V80.0393V76.0344C36.3337 72.7206 39.02 70.0344 42.3337 70.0344H44.431H46.5282C49.842 70.0344 52.5282 72.7207 52.5282 76.0344V80.0393ZM42.2462 102.102C41.1805 103.164 41.7889 106.182 43.2233 106.949C44.0438 107.387 46.3226 107.745 48.2868 107.745C50.251 107.745 52.5298 107.387 53.3503 106.949C55.0315 106.05 55.306 103.899 53.9164 102.512C52.9431 101.541 43.1524 101.197 42.2462 102.102ZM42.8956 123.803C54.9998 129.291 55.6762 145.989 44.0454 152.191C39.1924 154.779 32.4462 154.407 27.958 151.302C24.4261 148.859 20.908 142.692 20.9149 138.956C20.9358 127.349 32.7516 119.204 42.8956 123.803ZM136.971 123.814C145.354 127.651 148.904 136.88 145.161 145.103C140.183 156.041 124.454 156.983 117.8 146.742C109.532 134.016 123.296 117.553 136.971 123.814Z" fill="#2B506E"/>
</svg>
