<svg width="188" height="188" viewBox="0 0 188 188" fill="none" xmlns="http://www.w3.org/2000/svg">
<path fill-rule="evenodd" clip-rule="evenodd" d="M78.9453 2.74704C59.5842 6.55595 60.0183 6.44944 58.5264 7.75911C55.9138 10.0538 55.9943 9.45771 56.0123 26.4055C56.0269 40.4553 56.0879 41.9199 56.7933 45.1361C59.7304 58.528 67.8573 69.1585 79.7047 75.1056C83.5458 77.0338 92.1652 80.0923 93.8285 80.1177C95.4111 80.1416 102.869 77.5531 107.474 75.3814C115.597 71.5509 122.891 64.3796 127.033 56.154C128.886 52.4722 130.395 47.9835 130.623 45.4739C130.796 43.5697 130.737 43.368 129.797 42.6276C127.558 40.8666 125.972 42.127 124.661 46.7094C121.753 56.8749 115.246 64.9394 106.091 69.727C103.562 71.0492 94.7303 74.5173 93.8909 74.5173C93.6989 74.5173 91.4958 73.7754 88.9952 72.8686C80.9737 69.9602 77.1593 67.6718 72.5151 62.9815C66.8421 57.2518 63.3061 50.3387 62.0719 42.5652C61.4962 38.9374 61.5612 12.1072 62.1465 11.8842C62.3991 11.7876 69.679 10.3307 78.3244 8.64642L94.0437 5.5838L109.903 8.74118L125.762 11.8986L125.945 22.9988C126.124 33.8155 126.149 34.1192 126.935 34.904C127.991 35.9596 129.775 35.9596 130.831 34.9037C131.625 34.1093 131.637 33.9359 131.637 22.998C131.637 16.8934 131.509 11.4398 131.352 10.8794C130.984 9.56238 128.793 7.14027 127.502 6.62389C126.111 6.06749 94.9047 -0.0463772 93.6945 0.000265496C93.1558 0.0211996 86.5186 1.25705 78.9453 2.74704ZM81.2138 13.5468C70.7394 15.5954 68.4761 16.1471 67.8114 16.8129C67.0238 17.6022 67.0117 17.7877 67.0183 29.0796C67.0257 41.4656 67.2497 43.4257 69.238 48.5002C71.9577 55.4415 77.7479 61.7923 84.408 65.138C88.3361 67.1114 93.0211 68.7086 94.3672 68.5338C96.4602 68.262 103.681 65.1898 106.184 63.507C111.039 60.2417 115.347 55.2487 117.649 50.219C120.3 44.4291 120.805 40.8148 120.805 27.6293C120.805 18.1285 120.793 17.9863 119.966 17.0237C119.192 16.1236 118.233 15.8702 107.573 13.747C101.219 12.4814 95.5238 11.3642 94.918 11.2639C94.3103 11.1637 88.1654 12.1872 81.2138 13.5468ZM104.472 18.8726C110.122 19.981 114.788 20.8899 114.838 20.8925C114.888 20.8947 114.93 25.2497 114.93 30.5703C114.93 39.0292 114.838 40.6088 114.196 43.1491C112.737 48.9218 109.411 54.0632 104.945 57.4479C102.44 59.347 97.7229 61.7284 95.0905 62.4229C93.5586 62.8272 93.2366 62.771 90.2547 61.5807C85.9248 59.8527 83.3035 58.2235 80.6358 55.6031C77.9792 52.9941 75.9175 49.984 74.6511 46.8662C72.9807 42.7554 72.7163 40.5078 72.7094 30.3702L72.7031 20.93L74.0801 20.6784C74.8376 20.5403 79.4227 19.6372 84.2695 18.6713C89.1164 17.7058 93.3328 16.9022 93.6398 16.886C93.9464 16.8699 98.8208 17.7638 104.472 18.8726ZM102.402 28.2444C102.075 28.4354 98.9526 32.0636 95.4632 36.307L89.1193 44.0229L87.7134 42.7525C85.8569 41.0748 84.6694 40.792 83.4114 41.7278C82.6855 42.2677 82.405 42.8355 82.3231 43.9322C82.2166 45.3535 82.3209 45.5092 85.077 48.036C88.2039 50.9032 89.2681 51.4005 90.5848 50.6098C91.057 50.3262 94.8276 45.9657 98.9636 40.9202C107.094 31.003 107.346 30.5395 105.583 28.7762C104.651 27.8441 103.435 27.6406 102.402 28.2444ZM1.11074 64.9026C0.499742 65.5138 0 66.2667 0 66.5755C0 67.7456 0.852977 68.929 2.14695 69.5548C6.44781 71.6342 46.9725 90.6479 49.5703 91.8052L52.6914 93.1956L62.4219 91.5881C67.7736 90.7037 73.3916 89.8734 74.9062 89.743C80.5716 89.2545 88.0112 91.0721 93.4492 94.2732C95.8429 95.6824 98.1426 97.7358 105.873 105.368C111.091 110.518 115.594 115.179 115.879 115.724C117.076 118.011 116.213 121.009 114.064 122.029C111.598 123.199 111.163 122.995 101.411 116.082C96.6324 112.694 93.1041 110.443 92.3517 110.302C90.1082 109.881 89.0029 110.443 84.9143 114.083C75.4064 122.547 75.3248 122.647 76.2061 124.744C76.7554 126.05 78.1518 126.61 79.5383 126.079C80.0094 125.898 82.8034 123.546 85.7467 120.852C89.1175 117.766 91.2942 116.029 91.6276 116.156C91.9188 116.268 95.5477 118.77 99.6921 121.716C103.836 124.661 107.907 127.312 108.738 127.605C112.365 128.885 116.304 127.917 119.166 125.043C122.358 121.838 123.109 117.349 121.088 113.556C120.629 112.696 117.4 109.026 113.913 105.4C110.426 101.775 107.722 98.7164 107.904 98.6036C108.475 98.2503 113.176 97.67 115.524 97.6623C119.025 97.6509 123.83 98.622 129.381 100.462C133.225 101.737 134.84 102.107 135.992 101.977C137.163 101.845 143.165 98.5122 161.932 87.5713C175.36 79.7427 186.55 73.1463 186.799 72.9127C187.046 72.6787 187.354 71.9637 187.482 71.3232C187.671 70.3804 187.536 69.9793 186.772 69.2162C186.231 68.6741 185.413 68.2738 184.848 68.2738C184.221 68.2738 175.352 73.2344 160.322 81.9915C147.372 89.5362 136.426 95.8943 135.996 96.1205C135.354 96.4577 134.333 96.2351 130.304 94.8788C123.455 92.5735 119.953 92.0164 113.828 92.2576C110.464 92.3902 107.883 92.7108 105.796 93.2551L102.721 94.0576L101.757 93.2845C94.4854 87.4527 87.1384 84.5936 78.3945 84.1925C74.3599 84.0074 73.114 84.133 63.6226 85.6781L53.2565 87.3653L28.6006 75.7946C15.0396 69.431 3.55658 64.1266 3.08291 64.008C2.43959 63.8464 1.94059 64.0726 1.11074 64.9026ZM0.901445 116.185C-0.157524 117.244 -0.257031 118.57 0.642578 119.637C0.995813 120.057 8.63809 123.98 17.625 128.356C31.9563 135.335 34.1224 136.499 35.2456 137.826C39.7315 143.126 44.1099 146.867 49.6533 150.136C52.0914 151.574 53.5756 152.728 54.332 153.772C55.6116 155.539 57.5647 156.909 59.6816 157.525C61.107 157.939 61.1665 158.018 61.2344 159.58C61.3398 162.001 62.6499 164.68 64.5461 166.349C66.1459 167.757 68.9273 168.904 70.7431 168.904C71.3673 168.904 71.6438 169.168 71.8035 169.914C72.9113 175.092 76.5927 178.453 81.1554 178.453C82.4839 178.453 82.5059 178.478 82.9462 180.446C83.9398 184.887 87.8786 188.006 92.4857 188C94.8882 187.997 96.6026 187.441 98.7367 185.973L100.59 184.698L102.15 185.512C104.287 186.626 107.806 186.829 110.059 185.969C113.121 184.799 115.9 181.635 116.562 178.564C116.792 177.497 116.974 177.366 118.535 177.139C121.968 176.638 124.942 174.502 126.529 171.396C127.016 170.443 127.414 169.245 127.414 168.733C127.414 167.957 127.586 167.803 128.449 167.803C132.792 167.803 137.479 163.898 138.26 159.631C138.49 158.372 138.615 158.254 139.71 158.254C143.922 158.254 148.367 154.307 149.222 149.807C149.431 148.712 149.8 148.331 151.712 147.236C154.593 145.587 158.596 141.88 161.033 138.605L162.945 136.034L174.646 130.388C181.082 127.283 186.72 124.34 187.174 123.849C187.628 123.357 188 122.544 188 122.041C188 120.878 186.466 119.324 185.318 119.324C184.834 119.324 178.74 122.115 171.774 125.527L159.109 131.731L157.145 134.433C154.927 137.484 152.369 140.094 150 141.724C148.092 143.037 147.819 143.068 147.106 142.051C145.592 139.888 140.38 134.635 139.102 133.983C135.596 132.194 131.361 132.847 128.233 135.661C126.326 137.375 124.844 139.947 124.844 141.539C124.844 142.378 124.703 142.462 123.283 142.469C119.247 142.49 114.796 146.413 114.001 150.65C113.755 151.962 113.692 152.01 112.207 152.01C110.127 152.01 107.194 153.529 105.454 155.506C104.264 156.857 103.686 158.07 102.982 160.687C102.921 160.914 102.077 161.219 101.106 161.364C95.9931 162.131 92.1545 166.388 92.1721 171.272C92.1817 173.935 93.053 176.06 95.1622 178.565C96.5975 180.27 96.6258 180.354 95.9986 181.047C94.3562 182.863 90.7776 182.729 89.2578 180.797C88.0119 179.213 87.9443 177.866 89.007 175.817C90.1926 173.532 90.2018 172.785 89.0595 171.642C87.9043 170.487 86.8105 170.502 85.0494 171.699C82.4854 173.442 79.542 173.16 78.0497 171.028C77.2504 169.887 77.3301 167.48 78.2109 166.15C79.2618 164.563 79.1689 162.89 77.9778 161.953C76.7062 160.953 75.7838 160.993 74.159 162.119C72.6418 163.17 70.7508 163.373 69.047 162.668C66.8953 161.776 66.1749 158.779 67.564 156.5C68.5176 154.936 68.5003 153.315 67.5195 152.335C66.8549 151.67 66.4955 151.596 65.041 151.824C62.2809 152.256 61.0835 152.18 60.0565 151.507C58.6832 150.607 57.8632 148.715 58.1599 147.132C58.4254 145.717 59.4109 144.686 67.1953 137.682C73.0439 132.42 73.447 131.754 71.9419 129.84C70.7772 128.359 69.05 128.511 67.0954 130.267C56.0945 140.146 54.3489 141.854 53.5741 143.489C53.1243 144.439 52.7138 145.271 52.662 145.339C52.6099 145.407 51.284 144.596 49.7157 143.537C46.4848 141.357 41.4419 136.659 39.3842 133.914C38.0751 132.168 37.5211 131.836 28.6406 127.491C7.43628 117.115 3.54373 115.284 2.69369 115.284C2.20349 115.284 1.39715 115.69 0.901445 116.185ZM137.19 139.156C137.218 139.156 138.665 140.814 140.406 142.841C143.327 146.242 143.57 146.648 143.57 148.116C143.57 149.911 142.674 151.328 140.986 152.201C138.648 153.411 137.272 152.73 133.808 148.649C130.836 145.149 130.352 144.36 130.352 143.018C130.352 140.151 133.156 138.104 136.04 138.866C136.645 139.026 137.163 139.156 137.19 139.156ZM125.706 148.551C126.988 149.195 131.544 154.282 132.43 156.059C133.951 159.107 130.614 162.781 127.16 161.861C125.657 161.461 120.229 155.362 119.642 153.415C119.299 152.273 119.346 151.852 119.947 150.694C120.663 149.314 122.595 147.97 123.864 147.97C124.241 147.97 125.07 148.232 125.706 148.551ZM116.911 159.815C120.69 163.786 121.906 165.523 121.906 166.953C121.906 169.512 119.892 171.473 117.26 171.477C115.968 171.48 115.6 171.22 112.953 168.448C109.406 164.732 108.691 163.615 108.689 161.791C108.688 160.63 108.947 160.111 110.113 158.945C111.331 157.727 111.77 157.519 113.133 157.519C114.61 157.519 114.886 157.687 116.911 159.815ZM104.24 167.414C105.193 167.923 110.454 174.182 110.887 175.321C112.133 178.6 108.157 182.105 104.883 180.613C103.855 180.145 98.6622 174.275 98.0108 172.845C96.8876 170.38 99.2405 167.068 102.115 167.068C102.929 167.068 103.885 167.223 104.24 167.414Z" fill="#2B506E"/>
</svg>
