<svg width="160" height="195" viewBox="0 0 160 195" fill="none" xmlns="http://www.w3.org/2000/svg">
<path fill-rule="evenodd" clip-rule="evenodd" d="M61.383 0.886349C60.4638 1.37352 59.1998 2.5025 58.5741 3.39494L58.5241 3.46635C57.8162 4.47569 57.4365 5.67856 57.4365 6.91136V13.9001V20.9349C57.4365 22.1308 57.8457 23.2908 58.5961 24.222C60.3318 26.376 61.4118 27.0376 64 27.5317C65.3625 27.7918 66.3478 28.9834 66.3474 30.3705L66.347 31.6065C66.3463 33.7238 64.8714 35.555 62.8028 36.0066L62.2791 36.1209C54.774 37.7591 45.4232 41.4897 38.6454 45.5493C37.6396 46.1518 36.3491 45.9668 35.5531 45.1059L35.0174 44.5266C33.9716 43.3957 32.2738 41.5453 31.245 40.4144C28.2783 37.1547 25.5578 36.2706 22.6579 37.6235C20.8828 38.452 9.56504 48.7884 8.42435 50.6232C7.29048 52.4473 7.27001 55.3037 8.37808 57.1293C8.82139 57.8599 10.6978 60.1053 12.548 62.1191C14.3982 64.1333 15.912 65.8564 15.912 65.9486C15.912 66.0408 14.6246 68.0736 13.0512 70.4664C6.27569 80.7693 1.90861 92.7135 0.381876 105.118C-0.197949 109.832 -0.103144 120.028 0.568831 125.201C1.99052 136.14 5.45241 146.11 11.1737 155.742C14.9298 162.065 16.5044 163.913 18.1369 163.913C19.6705 163.913 20.9689 162.684 20.9666 161.236C20.9655 160.549 20.0516 158.806 18.4099 156.358C15.5184 152.048 11.1244 143.3 9.70497 139.028C7.22716 131.568 6.0766 125.186 5.79067 117.316C5.02655 96.2943 12.6727 76.7421 27.4668 61.8852C41.7027 47.589 59.9283 39.9943 80 39.9943C110.888 39.9943 138.061 58.7211 149.385 87.8114C155.494 103.505 155.899 121.695 150.505 138.075C146.745 149.496 140.459 159.468 131.519 168.194C121.987 177.497 111.243 183.541 98.3921 186.829C91.292 188.645 87.267 189.114 79.2416 189.06C71.6394 189.009 66.499 188.313 59.8373 186.431C49.9761 183.646 40.0231 178.36 32.4808 171.901C26.3367 166.639 26.1839 166.567 24.4023 168.106C23.0645 169.262 23.0171 171.024 24.2863 172.412C24.7903 172.963 26.7387 174.707 28.6159 176.286C52.7581 196.602 86.7789 200.765 115.058 186.866C123.39 182.771 129.758 178.209 136.347 171.613C142.906 165.048 147.303 159.011 151.435 150.896C155.482 142.949 158.294 133.892 159.439 125.115C160.104 120.022 160.195 109.81 159.618 105.118C158.101 92.7912 153.683 80.7069 146.953 70.4718C145.377 68.0759 144.088 66.0408 144.088 65.9486C144.088 65.8564 145.602 64.1333 147.452 62.1191C149.302 60.1053 151.179 57.8599 151.622 57.1293C152.73 55.3037 152.71 52.4473 151.576 50.6232C150.435 48.7884 139.117 38.452 137.342 37.6235C133.978 36.0539 131.895 36.9935 127.149 42.2225C125.123 44.4538 123.33 46.3354 123.163 46.4044C122.997 46.4737 121.878 45.9355 120.676 45.2087C113.736 41.0116 103.717 37.1288 96.2116 35.7278C94.7276 35.4507 93.6519 34.1554 93.6519 32.6458V31.5277V28.8742C93.6519 28.284 94.1303 27.8055 94.7205 27.8055C95.3087 27.8055 96.6621 27.5454 97.7285 27.2273C99.9822 26.555 102.591 23.9242 102.957 21.9534C103.079 21.2964 103.126 17.2166 103.061 12.8869L102.97 6.86048C102.952 5.65766 102.573 4.48805 101.882 3.50346L101.805 3.3938C101.179 2.50212 99.9154 1.37352 98.9962 0.886349L98.6431 0.699094C97.7773 0.240025 96.8122 0 95.8323 0H80.1896H64.5469C63.567 0 62.6019 0.240023 61.7362 0.69909L61.383 0.886349ZM69.7611 13.7123V18.6907C69.7611 20.3589 68.4088 21.7112 66.7406 21.7112C64.1426 21.7112 63.6655 21.6083 63.3276 20.9745C63.1005 20.5483 62.9351 17.4695 62.9351 13.6719C62.9351 5.63157 62.8934 5.71346 66.9757 5.71346C68.514 5.71346 69.7611 6.96051 69.7611 8.49883V13.7123ZM84.9298 13.7123V16.9709C84.9298 19.5889 82.8076 21.7112 80.1896 21.7112C77.5716 21.7112 75.4494 19.5889 75.4494 16.9709V13.7123V10.4537C75.4494 7.83574 77.5716 5.71346 80.1896 5.71346C82.8076 5.71346 84.9298 7.83574 84.9298 10.4537V13.7123ZM96.7505 6.34385C97.3728 6.90948 97.4441 7.66937 97.4441 13.7443C97.4441 21.9005 97.5392 21.7112 93.4353 21.7112C91.8794 21.7112 90.6181 20.4499 90.6181 18.894V13.7123V8.43284C90.6181 6.93097 91.8356 5.71346 93.3375 5.71346C95.336 5.71346 96.2408 5.88068 96.7505 6.34385ZM87.9636 30.9712C87.9636 32.7195 86.5463 34.1368 84.7979 34.1368H80H75.202C73.4537 34.1368 72.0364 32.7195 72.0364 30.9712C72.0364 29.2228 73.4537 27.8055 75.202 27.8055H80H84.7979C86.5463 27.8055 87.9636 29.2228 87.9636 30.9712ZM28.7744 46.3621C30.46 48.1881 31.8392 49.7955 31.8392 49.9338C31.8392 50.072 30.8578 50.9889 29.6587 51.9708C28.4596 52.9528 25.752 55.469 23.642 57.562L23.231 57.9697C21.3595 59.8263 18.3212 59.7597 16.5328 57.8229C14.7327 55.8731 13.259 54.1012 13.2586 53.8848C13.2571 53.3211 24.5688 43.0414 25.1907 43.0414C25.4763 43.0414 27.0891 44.5357 28.7744 46.3621ZM141.045 48.2632C144.179 51.1355 146.742 53.643 146.742 53.8353C146.742 54.1941 145.408 55.7748 142.084 59.3522C141.054 60.4609 139.311 60.4961 138.237 59.4299L136.361 57.567C134.25 55.4697 131.535 52.9463 130.329 51.9594C129.122 50.9721 128.184 50.0244 128.243 49.8534C128.509 49.0825 134.336 43.0414 134.814 43.0414C135.108 43.0414 137.912 45.3912 141.045 48.2632ZM73.7429 50.2914C56.4205 52.2729 41.19 60.4888 30.3421 73.7037C23.8157 81.6538 19.2814 91.1888 16.967 101.828C16.2309 105.212 16.1244 106.826 16.1217 114.65C16.1191 123.143 16.1737 123.834 17.1866 128.142C18.581 134.07 20.0743 138.298 22.5195 143.237C31.3997 161.174 47.7361 173.679 67.865 177.946C71.2279 178.659 73.0846 178.793 79.8104 178.808C86.6352 178.823 88.3845 178.702 92.0421 177.96C112.079 173.895 128.526 161.265 137.6 142.976C139.928 138.285 141.441 133.98 142.813 128.142C143.826 123.834 143.881 123.143 143.878 114.65C143.876 106.826 143.769 105.212 143.033 101.828C141.778 96.059 140.163 91.3895 137.606 86.135C135.053 80.8886 134.035 79.6076 132.416 79.6076C131.087 79.6076 129.678 81.0009 129.678 82.315C129.678 82.8346 130.681 85.2464 131.907 87.675C134.411 92.6324 136.096 97.4028 137.333 103.033C138.543 108.542 138.549 120.318 137.344 125.911C135.257 135.6 131.299 144.075 125.42 151.443C124.371 152.758 122.412 152.866 121.225 151.674L109.177 139.576L96.4939 126.84C95.5489 125.891 95.3371 124.435 95.9727 123.256C101.354 113.277 96.4945 100.894 85.7747 97.2714C84.2483 96.7552 83.2181 95.3267 83.2103 93.7154L83.1251 76.2005L83.032 57.0382C83.0292 56.4616 83.4965 55.993 84.0732 55.9942C85.915 55.998 92.2325 57.0828 95.1687 57.8991C105.385 60.7395 112.98 65.1659 121.794 73.4165C123.254 74.7832 124.681 75.7986 125.141 75.7986C125.582 75.7986 126.46 75.2802 127.091 74.6464C128.807 72.9229 128.407 72.0384 123.959 67.7099C114.794 58.7908 102.257 52.6618 89.1126 50.6739C85.143 50.0736 77.3447 49.8797 73.7429 50.2914ZM76.8748 76.2005L76.7897 93.7153C76.7819 95.3267 75.7517 96.7552 74.2253 97.2714C63.5612 100.876 58.7691 112.893 63.923 123.109C64.4763 124.206 65.9738 126.149 67.2503 127.428C72.9329 133.12 80.9344 134.429 88.1532 130.85C89.739 130.064 91.6498 130.379 92.8993 131.633L104.934 143.706C112.703 151.501 119.06 157.998 119.06 158.144C119.06 158.797 110.636 164.672 106.916 166.613C100.455 169.985 92.1687 172.405 84.8779 173.05C83.9082 173.135 83.054 172.416 82.974 171.446L82.9511 171.168C82.7391 168.603 81.9067 167.595 80 167.595C78.0975 167.595 77.2609 168.604 77.0504 171.152C76.958 172.272 75.9809 173.107 74.8607 173.025L74.7444 173.017C65.0019 172.301 53.2988 167.766 45.0171 161.496C42.7751 159.799 40.9405 158.312 40.9405 158.192C40.9405 158.073 41.5377 157.31 42.2677 156.499C43.8157 154.778 43.9746 153.386 42.7706 152.098C41.5415 150.784 39.8862 150.936 38.0281 152.534C37.1904 153.254 35.9226 153.138 35.23 152.277L34.5939 151.486C27.5389 142.716 22.9344 131.369 21.7721 119.888L21.7249 119.421C21.6109 118.295 22.4951 117.316 23.6272 117.316C26.0728 117.316 27.2886 116.402 27.2886 114.561C27.2886 112.764 25.7945 111.603 23.4835 111.603C22.4424 111.603 21.6285 110.705 21.7306 109.669L21.7933 109.032C22.4657 102.21 24.4187 95.3063 27.4922 88.8893C29.3379 85.0358 32.8593 79.5543 35.1691 76.9402L35.2698 76.8262C36.0406 75.9537 37.3759 75.8799 38.2381 76.6621C40.0827 78.3358 41.3443 78.4748 42.664 77.1489C43.9954 75.812 43.8711 74.3554 42.2654 72.4707C41.5294 71.6072 41.6278 70.3116 42.4859 69.5692L42.5499 69.5138C46.6041 66.0054 53.2021 62.0958 58.9162 59.8158C63.6136 57.9414 71.5472 56.1356 75.5476 56.0297C76.3275 56.009 76.9699 56.6377 76.9661 57.4179L76.8748 76.2005ZM84.9492 103.106C92.9052 106.65 94.9021 117.342 88.7315 123.357C82.5931 129.341 72.3383 127.55 68.7986 119.876C65.6344 113.016 69.1304 104.965 76.2927 102.617C78.5025 101.893 82.7656 102.134 84.9492 103.106Z" fill="#2B506E"/>
</svg>
