<svg width="18" height="18" viewBox="0 0 18 18" fill="none" xmlns="http://www.w3.org/2000/svg">
<path d="M16.938 0.00132428C16.7386 0.0109425 16.5445 0.0719597 16.3695 0.149024C16.1963 0.225572 15.199 0.693633 13.7262 1.38601C12.2534 2.07838 10.339 2.98 8.44117 3.87404C4.64559 5.66212 0.915781 7.42146 0.915781 7.42146L0.942966 7.41004C0.942966 7.41004 0.717853 7.49277 0.48962 7.66763C0.375504 7.75506 0.252733 7.86793 0.152209 8.03248C0.0516857 8.19704 -0.0218035 8.43025 0.00589108 8.67691C0.103167 9.5433 0.919779 9.78905 0.919779 9.78905L0.922977 9.79081L4.56734 11.1623C4.66025 11.5031 5.67268 15.2187 5.89539 16.0056C6.01839 16.4407 6.13351 16.6916 6.25359 16.8628C6.31368 16.9485 6.37666 17.0148 6.44628 17.0633C6.47395 17.0825 6.50304 17.097 6.53184 17.1098C6.53245 17.1101 6.53282 17.1095 6.53344 17.1098C6.53697 17.1116 6.5403 17.1117 6.54383 17.1134L6.53424 17.1107C6.54092 17.1137 6.54753 17.1187 6.55422 17.1213C6.56722 17.1263 6.57518 17.1261 6.5918 17.1301C7.00917 17.2903 7.35458 16.9929 7.35458 16.9929L7.36897 16.9806L9.60771 14.6974L13.2409 17.8123L13.2865 17.8352C13.9224 18.1456 14.4975 17.9724 14.816 17.6875C15.1345 17.4025 15.2597 17.0351 15.2597 17.0351L15.2733 16.9964L17.943 1.69635C18.0114 1.35405 18.0211 1.05818 17.9566 0.790813C17.8922 0.523449 17.7357 0.291033 17.5393 0.162211C17.3429 0.0333898 17.1374 -0.00829395 16.938 0.00132428ZM16.9596 0.916534C17.0406 0.91241 17.1006 0.922589 17.1195 0.934996C17.1384 0.947403 17.1469 0.94577 17.1651 1.02115C17.1832 1.09654 17.1931 1.25532 17.1435 1.50381L17.1419 1.50909L14.4874 16.7204C14.4811 16.7357 14.4258 16.8764 14.2995 16.9894C14.1706 17.1047 14.0273 17.1947 13.647 17.0193L9.67408 13.6125L9.56214 13.5158L9.55974 13.5185L8.37161 12.5382L15.0487 3.90042C15.1 3.83421 15.1327 3.75309 15.143 3.66685C15.1533 3.58061 15.1406 3.49294 15.1065 3.41445C15.0724 3.33596 15.0184 3.27001 14.9509 3.22457C14.8835 3.17913 14.8055 3.15615 14.7264 3.1584C14.6492 3.16061 14.5741 3.18682 14.5098 3.23401L4.84798 10.3166L1.19802 8.94242C1.19802 8.94242 0.835584 8.72064 0.818236 8.56614C0.817274 8.55757 0.812995 8.56532 0.831828 8.53449C0.850662 8.50366 0.898004 8.4516 0.957358 8.40613C1.07607 8.31518 1.21162 8.26019 1.21162 8.26019L1.22521 8.25491L1.2388 8.24876C1.2388 8.24876 4.9688 6.48932 8.76419 4.70133C10.6619 3.80734 12.576 2.90638 14.0484 2.21418C15.5204 1.52215 16.5841 1.02404 16.6742 0.984229C16.7767 0.939083 16.8786 0.920657 16.9596 0.916534ZM12.5317 5.766L7.46811 12.3166L7.46571 12.3193C7.45781 12.3298 7.45034 12.3406 7.44333 12.3518C7.43529 12.364 7.42782 12.3766 7.42094 12.3896C7.39249 12.4427 7.37426 12.5017 7.36737 12.5628C7.36736 12.564 7.36736 12.5652 7.36737 12.5663L6.70774 15.828C6.69677 15.7928 6.68909 15.7799 6.67735 15.7384V15.7375C6.46784 14.9972 5.51264 11.4931 5.38048 11.0085L12.5317 5.766ZM8.03979 13.3901L8.94968 14.1409L7.61283 15.5036L8.03979 13.3901Z" fill="#F4F4EF"/>
</svg>
