<svg width="192" height="192" viewBox="0 0 192 192" fill="none" xmlns="http://www.w3.org/2000/svg">
<path fill-rule="evenodd" clip-rule="evenodd" d="M85.561 0.225766C68.0203 2.35398 52.7535 8.4405 38.3636 19.0419C35.686 21.0149 26.479 29.151 26.4664 29.5555C26.4624 29.6829 25.3695 30.9378 24.0378 32.3439C21.7485 34.7607 16.1629 41.8925 16.1629 42.3982C16.1629 42.5273 15.4436 43.7174 14.564 45.0429C7.11185 56.2743 1.71189 72.3917 0.268012 87.7124C-0.165825 92.3138 -0.0520108 103.591 0.458362 106.603C0.551157 107.149 0.747057 108.489 0.894181 109.581C2.51215 121.596 7.76696 136.03 14.3875 146.647C28.2445 168.866 51.0166 184.772 76.6419 190.131C86.9874 192.294 100.794 192.609 111.337 190.922C117.431 189.947 125.997 187.677 130.174 185.931C131.265 185.475 132.514 184.961 132.95 184.789C134.407 184.214 142.046 180.477 144.054 179.357C146.554 177.961 153.225 173.446 156.347 171.035C159.622 168.507 168.515 159.482 171.527 155.63C174.718 151.55 174.219 152.254 177.14 147.718C183.957 137.133 188.371 125.906 190.885 112.756C191.845 107.734 191.952 106.261 191.993 97.4726C192.047 85.564 191.842 83.2424 189.988 74.8447C187.981 65.7558 183.821 55.1485 179.3 47.5959C177.29 44.2367 175.822 41.9497 174.751 40.5058C174.103 39.6325 173.272 38.4713 172.904 37.9255C171.555 35.9211 163.7 27.328 160.859 24.7477C153.791 18.3277 147.042 13.7966 137.623 9.14871C132.337 6.54015 123.1 3.27299 117.881 2.16542C116.572 1.88753 115.234 1.60131 114.906 1.52945C114.579 1.4572 113.598 1.29206 112.725 1.16224C111.853 1.03243 110.336 0.758913 109.355 0.554071C106.859 0.0332316 89.1609 -0.210913 85.561 0.225766ZM98.4492 9.90892C98.4492 14.9371 98.4622 15.0113 99.4866 15.7827C100.451 16.5091 100.608 16.5206 101.714 15.9482C103.114 15.2233 103.404 14.1721 103.412 9.78943C103.42 4.97485 103.349 5.06933 106.704 5.44448C115.045 6.37659 123.613 8.64772 132.057 12.1646C133.311 12.687 134.337 13.2344 134.337 13.3809C134.337 13.5278 133.446 15.4448 132.355 17.6409C131.265 19.837 130.372 21.9549 130.372 22.3471C130.372 24.4015 133.073 25.6373 134.481 24.2276C134.81 23.8989 135.928 21.8894 136.968 19.7616C138.007 17.6338 138.903 15.8263 138.96 15.7449C139.139 15.4853 142.357 17.2848 145.807 19.5742C151.975 23.6671 162.137 32.249 162.067 33.3066C162.051 33.5543 160.445 35.1652 158.498 36.8866C154.787 40.1676 154.401 40.9219 155.576 42.6007C156.742 44.2668 158.095 43.7817 161.947 40.3157C163.884 38.5733 165.557 37.1513 165.666 37.1553C165.775 37.1593 166.431 37.9147 167.124 38.8341C167.817 39.7536 169.111 41.4475 169.999 42.5979C170.888 43.7488 171.615 44.767 171.615 44.8607C171.615 44.9544 172.194 45.8889 172.903 46.9369C176.289 51.9429 181.895 63.6093 181.343 64.5025C181.232 64.6824 179.166 65.5065 176.751 66.3338C172.038 67.9487 171.381 68.5085 171.823 70.5267C172.296 72.6811 173.383 72.7724 178.571 71.0932C181.1 70.275 183.259 69.6962 183.37 69.8074C183.742 70.1802 185.086 75.7951 185.905 80.4024C186.351 82.9133 186.808 87.1114 186.92 89.7315C187.032 92.3515 187.172 95.3436 187.23 96.3809C187.293 97.5067 187.164 98.2824 186.911 98.3063C185.993 98.392 179.761 98.186 179.034 98.0458C178.61 97.9641 177.749 98.1637 177.12 98.4893C176.208 98.9609 175.977 99.3479 175.977 100.399C175.977 102.567 176.79 102.952 182.044 103.266C184.611 103.42 186.765 103.653 186.832 103.784C186.953 104.021 186.139 110.66 185.756 112.558C184.709 117.748 183.927 120.821 182.674 124.666C181.682 127.71 179.491 133.254 179.032 133.881C178.77 134.239 177.672 133.856 174.758 132.392C172.601 131.308 170.356 130.422 169.769 130.422C167.76 130.422 166.697 132.214 167.649 133.995C167.867 134.403 169.875 135.658 172.11 136.784C174.346 137.909 176.236 138.89 176.311 138.964C176.573 139.221 173.466 144.54 171.098 147.889C167.727 152.656 165.674 155.147 161.994 158.936L158.783 162.241L155.175 158.418C151.387 154.404 151.053 154.252 149.308 155.752C147.941 156.927 148.466 158.227 151.814 161.955L154.997 165.5L153.293 166.999C149.438 170.388 142.129 175.053 136.122 177.958C134.596 178.696 133.03 179.472 132.644 179.681C131.557 180.271 127.553 181.727 127.446 181.572C127.393 181.496 126.687 179.469 125.878 177.067C125.067 174.666 124.097 172.469 123.72 172.187C122.631 171.369 120.766 171.755 120.107 172.935C119.58 173.881 119.656 174.339 121.044 178.602C121.875 181.152 122.484 183.3 122.399 183.374C122.082 183.648 113.83 185.592 111.337 185.979C109.92 186.2 108.135 186.481 107.372 186.605C106.608 186.729 103.181 186.937 99.7538 187.066L93.5239 187.302L93.6996 185.956C93.7963 185.216 93.9395 182.948 94.0176 180.917C94.1536 177.38 94.1179 177.192 93.1773 176.451C91.9749 175.504 91.1822 175.486 90.0361 176.381C89.247 176.997 89.1308 177.552 88.8948 181.831C88.7505 184.451 88.5625 186.673 88.4769 186.768C88.3916 186.863 86.4064 186.711 84.0663 186.43C77.2233 185.609 65.8186 182.47 60.0181 179.811C58.7991 179.253 57.8017 178.754 57.8017 178.703C57.8017 178.653 58.694 176.862 59.7845 174.725C60.8751 172.587 61.7673 170.378 61.7673 169.816C61.7673 167.668 59.068 166.482 57.7177 168.036C57.3857 168.418 56.2564 170.428 55.2082 172.502C54.1597 174.576 53.2588 176.333 53.206 176.405C53.1533 176.478 51.3711 175.513 49.2464 174.261C43.9606 171.147 38.1054 166.679 33.6528 162.361L29.9267 158.748L31.8683 156.955C32.9362 155.969 34.5685 154.488 35.4952 153.663C37.7517 151.655 37.8183 149.849 35.6777 148.72C34.9151 148.318 34.5566 148.373 33.4419 149.062C32.7118 149.514 31.8905 150.154 31.6165 150.484C31.3425 150.815 30.0973 151.971 28.8493 153.053L26.5798 155.021L24.643 152.568C22.657 150.053 22.5297 149.876 20.0913 146.242C17.215 141.955 14.407 136.764 12.2862 131.811C10.2288 127.008 9.97382 127.552 15.0621 125.877C17.5215 125.068 19.757 124.117 20.0294 123.765C20.7162 122.877 20.6496 121.076 19.9021 120.327C18.9833 119.408 17.7595 119.55 13.3323 121.093C11.1389 121.857 9.21639 122.482 9.05936 122.482C8.78097 122.482 6.82117 114.925 6.38297 112.161C5.5835 107.119 5.16077 102.59 5.09732 98.3845L5.02436 93.5401L9.77911 93.7795C13.828 93.9831 14.685 93.92 15.5471 93.3547C16.2367 92.9022 16.5595 92.3333 16.5595 91.5703C16.5595 89.8041 15.3793 89.0558 12.3076 88.8748C10.8292 88.7878 8.662 88.6167 7.49175 88.4949L5.36421 88.2734L5.58985 85.9617C5.9178 82.6029 6.97741 76.6752 7.84865 73.3258C9.29094 67.7796 12.9833 57.7745 13.5877 57.7745C13.7031 57.7745 15.576 58.6677 17.7492 59.7594C19.9223 60.8511 22.0911 61.7443 22.5686 61.7443C24.597 61.7443 25.6609 59.0028 24.2 57.5403C23.8221 57.162 22.3497 56.31 20.9284 55.6471C19.5071 54.9845 17.7642 54.1028 17.0556 53.6876L15.7676 52.9329L16.9374 50.7992C19.8482 45.4899 25.3742 38.1299 30.196 33.1406L33.5573 29.6631L36.8166 33.3971C40.4752 37.5892 41.5567 38.0497 43.1072 36.0767C44.2537 34.6178 43.9436 33.9386 40.3067 29.9422L37.1961 26.5242L39.0722 24.964C41.8005 22.6949 46.0679 19.6866 49.474 17.6322C54.435 14.6401 64.2815 10.1396 64.7788 10.6374C64.8784 10.737 65.6366 12.8426 66.4642 15.3166C67.7951 19.2959 68.0956 19.8573 69.0704 20.1824C70.5547 20.6778 71.9823 19.9855 72.3289 18.6024C72.5217 17.8346 72.1743 16.2701 71.1504 13.2912C70.3517 10.9689 69.6985 8.97165 69.6985 8.85256C69.6985 8.48178 75.6232 7.01692 80.604 6.15587C85.1727 5.36588 92.2906 4.75611 96.4664 4.797L98.4492 4.81606V9.90892ZM91.7076 23.502C84.9193 24.2538 82.5289 24.6024 79.8108 25.2372C63.6792 29.0053 49.3415 38.1339 38.678 51.426C36.6659 53.9341 32.4572 60.911 30.5378 64.9202C28.67 68.8221 26.4041 75.1766 25.6542 78.616C25.3687 79.926 25.1133 81.0872 25.0867 81.1964C25.0602 81.3055 24.8944 82.1988 24.7179 83.1813C24.5415 84.1638 24.3015 85.325 24.1846 85.7617C23.698 87.579 23.7579 102.939 24.2651 106.405C28.0252 132.102 44.9659 153.58 69.302 163.506C85.1553 169.972 104.722 170.286 120.749 164.333C124.159 163.066 131.093 159.846 133.346 158.482C138.092 155.612 143.883 151.036 147.707 147.137C150.95 143.831 156.942 136.492 156.942 135.826C156.942 135.701 157.593 134.578 158.39 133.332C163.238 125.745 167.063 114.399 168.203 104.221C169.636 91.4301 167.51 77.539 162.439 66.568C161.597 64.7451 160.907 63.1873 160.907 63.1064C160.907 62.8368 156.851 56.0802 155.798 54.5975C149.332 45.486 141.351 38.1636 132.285 33.0255C124.322 28.5118 116.782 25.864 107.335 24.2634C103.786 23.6619 94.3955 23.2042 91.7076 23.502ZM106.182 29.2097C123.607 31.862 139.037 41.0866 150.127 55.4803C151.258 56.948 152.183 58.2342 152.183 58.3386C152.183 58.443 152.727 59.3358 153.393 60.3227C154.867 62.5101 158.173 69.0865 159.296 72.0658C162.611 80.8649 164.245 93.0248 163.323 102.038C162.264 112.397 159.935 119.754 154.402 130.224C150.755 137.124 141.059 147.361 133.346 152.453C131.343 153.776 130.999 153.968 126.353 156.357C119.453 159.906 110.968 162.423 103.208 163.226C97.2924 163.838 86.8307 163.259 81.7936 162.042C73.6043 160.062 68.2404 157.932 61.5163 153.99C50.3341 147.435 40.8377 136.951 35.09 124.813C29.3371 112.665 27.3324 97.6584 29.688 84.3722C31.7232 72.8903 36.5941 62.2513 43.9804 53.1529C46.4863 50.0667 53.2013 43.5586 55.4224 42.064C56.1858 41.5503 57.5602 40.5979 58.4771 39.9473C62.5172 37.0795 71.742 32.5742 75.2504 31.7556C75.5776 31.6794 77.0623 31.259 78.5494 30.8215C80.8891 30.1335 86.0348 29.2109 90.7162 28.6409C93.025 28.3594 103.01 28.7266 106.182 29.2097ZM89.5896 37.1855C84.5124 37.7186 76.9798 39.7329 72.5617 41.7389C71.4105 42.2617 70.3898 42.6892 70.2938 42.6892C69.9 42.6892 63.0121 46.9012 61.1725 48.2668C58.4477 50.2898 53.206 55.1397 51.1296 57.5585C47.2521 62.0758 42.2427 70.6855 40.6101 75.6386C37.9932 83.5767 37.162 88.4532 37.1592 95.8847C37.1568 102.925 38.1244 109.055 40.1635 114.913C43.403 124.222 47.3675 130.586 54.3493 137.688C58.997 142.415 60.222 143.402 65.1484 146.389C75.0755 152.406 84.6342 155.073 96.2681 155.071C105.554 155.069 113.847 153.151 122.243 149.063C127.465 146.521 131.111 144.04 135.577 139.991C141.903 134.255 145.606 129.355 149.105 122.085C153.042 113.906 154.867 106.643 155.137 98.076C155.796 77.1507 145.996 58.2548 128.282 46.2986C122.671 42.511 112.6 38.6511 105.877 37.7119C105.063 37.5983 103.999 37.4185 103.513 37.3129C101.747 36.9282 92.816 36.8469 89.5896 37.1855ZM102.067 42.2629C118.263 44.1731 131.316 52.1759 141.315 66.3255C144.433 70.7375 148.021 79.61 149.216 85.8629C150.941 94.8922 150.021 106.292 146.895 114.607C140.537 131.514 126.514 144.151 109.355 148.435C86.4266 154.159 62.748 144.518 49.9725 124.256C47.6209 120.527 44.0046 111.575 43.4026 107.993C43.2928 107.338 42.9886 105.551 42.7265 104.023C42.0313 99.9625 42.1214 91.6076 42.9109 86.9526C45.7217 70.3794 56.0418 56.2072 71.2848 47.9861C75.9828 45.4522 84.219 42.8984 89.2125 42.4272C90.585 42.2978 91.7588 42.1485 91.8211 42.0953C92.1482 41.8175 99.2776 41.9342 102.067 42.2629ZM87.9042 53.6276C84.104 54.3164 79.86 55.8249 76.0435 57.8432C72.5006 59.7169 71.1381 61.0536 71.5259 62.2763C71.6742 62.7443 74.2709 65.8975 77.2958 69.2838L82.7957 75.4402L81.7 76.2274C81.0973 76.6605 79.7938 77.7665 78.8036 78.6851L77.0032 80.3552L71.3498 74.0269C64.9838 66.9011 64.5889 66.6824 62.401 69.0738C58.7456 73.0686 53.4562 85.1932 54.0305 88.2607C54.3457 89.9439 54.9703 90.1618 60.3794 90.4778C62.7786 90.6179 66.4095 90.8458 68.4478 90.9839L72.154 91.2352L71.9177 92.4186C71.7876 93.0697 71.6814 94.6429 71.6814 95.9148V98.2273L66.8235 97.9541C64.1515 97.8037 60.1847 97.6786 58.008 97.6758C54.0999 97.6711 54.0439 97.6846 53.5356 98.741C53.139 99.5651 53.1144 100.398 53.4297 102.373C54.0471 106.243 55.6671 111.485 57.1657 114.462C59.5185 119.136 59.7893 119.61 60.396 120.114C61.9137 121.375 62.6636 120.945 69.1315 115.104L75.4487 109.399L76.4393 110.681C76.9841 111.386 78.0993 112.592 78.9178 113.361C79.7363 114.13 80.4057 114.869 80.4057 115.004C80.4057 115.139 77.6329 117.721 74.2443 120.741C70.7411 123.863 67.983 126.631 67.851 127.158C67.5456 128.376 68.5668 129.44 72.6378 132.148C76.3564 134.621 80.1761 136.377 84.3653 137.539C90.4339 139.223 90.3141 139.436 90.9554 125.805L91.2195 120.195L94.6358 120.399C96.5151 120.511 98.1216 120.663 98.2057 120.736C98.2901 120.81 98.1386 124.576 97.869 129.106L97.3788 137.342L98.4622 138.275C99.3597 139.048 99.8248 139.166 101.178 138.965C106.535 138.168 110.745 136.861 115.498 134.519C119.523 132.536 120.855 131.466 120.855 130.217C120.855 129.671 118.829 127.096 115.303 123.162C110.177 117.442 109.203 116.131 110.08 116.131C110.261 116.131 111.498 115.144 112.829 113.938L115.249 111.746L120.701 117.809C123.7 121.143 126.518 124.015 126.963 124.189C127.457 124.383 128.143 124.309 128.721 123.999C131.745 122.379 138.303 108.956 138.303 104.387C138.303 102.224 137.389 101.902 129.951 101.45C126.366 101.231 122.662 101.051 121.72 101.049C120.201 101.046 120.036 100.958 120.255 100.268C120.39 99.8402 120.513 98.2082 120.528 96.6413L120.555 93.793L124.968 94.0486C127.395 94.1892 131.187 94.415 133.395 94.55C137.197 94.7823 137.456 94.7481 138.301 93.9018C139.22 92.9819 139.242 92.2201 138.478 87.6799C137.291 80.6279 132.564 71.2588 130.204 71.279C129.71 71.283 126.925 73.5005 123.234 76.8296C119.853 79.8784 116.998 82.3746 116.889 82.3762C116.78 82.3782 115.579 81.1479 114.221 79.6426L111.75 76.9058L118.087 71.2524C125.665 64.491 125.718 64.3644 122.144 61.5458C117.773 58.0992 107.956 53.8047 104.448 53.8047C102.326 53.8047 101.946 54.7237 101.656 60.5534C101.136 71.0297 101.001 72.1111 100.24 71.8693C99.8601 71.7486 98.2568 71.6379 96.6777 71.6228L93.8062 71.5962L94.0339 69.5482C94.1592 68.4219 94.3789 64.5343 94.522 60.9091L94.783 54.3176L93.851 53.6642C92.7589 52.8984 91.9539 52.8936 87.9042 53.6276ZM89.3572 64.027C89.2141 67.0293 88.9952 70.2449 88.8702 71.1726C88.4927 73.9797 87.5469 73.4763 82.4856 67.7729L78.0223 62.7431L78.9166 62.0643C79.8965 61.3199 87.6925 58.5907 88.8778 58.5772C89.5757 58.5689 89.6023 58.871 89.3572 64.027ZM108.958 60.1584C111.953 61.1139 117.84 64.329 117.603 64.8801C117.499 65.1202 110.551 71.4688 108.343 73.3409C107.875 73.7371 107.195 73.93 106.711 73.8034C106.051 73.6307 105.908 73.3302 106.011 72.3298C106.192 70.5791 106.561 63.0952 106.571 61.0071C106.577 59.5184 106.675 59.3168 107.273 59.5597C107.654 59.715 108.413 59.9845 108.958 60.1584ZM69.6407 79.4505C72.8655 83.0638 74.0714 84.6898 73.9838 85.3059C73.9045 85.8645 73.5888 86.1499 73.0693 86.1332C65.8035 85.8998 59.7845 85.3952 59.7849 85.0189C59.7853 83.3611 64.1031 74.4477 64.9053 74.4477C65.0544 74.4477 67.1855 76.699 69.6407 79.4505ZM101.82 77.512C105.482 78.5489 109.944 81.7775 112.043 84.9089C113.725 87.4191 114.388 89.0566 115.041 92.3118C115.884 96.5123 115.48 100.203 113.769 103.953C110.513 111.087 104.006 115.315 96.2681 115.324C85.2021 115.338 76.8184 106.993 76.845 95.9915C76.8632 88.4131 80.9525 81.8359 87.6607 78.5965C89.3211 77.7942 91.1156 77.2949 94.4836 76.6966C95.8414 76.4552 99.5405 76.8665 101.82 77.512ZM130.695 80.0952C131.869 82.745 133.005 86.14 133.359 88.0506L133.635 89.5453L129.129 89.2999C126.65 89.165 124.265 88.9967 123.829 88.9264C123.393 88.8557 122.188 88.7847 121.152 88.7684C117.941 88.7184 118.468 87.6576 124.277 82.4826C127.031 80.0285 129.396 78.0209 129.531 78.0209C129.666 78.0213 130.191 78.9546 130.695 80.0952ZM92.3945 85.028C89.8148 85.8192 86.9037 88.5024 85.5681 91.3194C84.244 94.1125 84.2329 98.1137 85.5419 100.813C89.0289 108.004 97.9852 109.852 103.947 104.612C107.133 101.812 108.494 96.7668 107.186 92.6044C106.341 89.9184 103.673 86.7497 101.278 85.5886C98.9322 84.452 95.0665 84.2079 92.3945 85.028ZM99.7713 90.7219C104.938 94.4682 102.436 102.49 96.0698 102.592C93.968 102.625 91.44 101.006 90.3819 98.9478C87.3189 92.9899 94.3749 86.8085 99.7713 90.7219ZM71.6274 103.229C72.4511 103.316 73.2438 103.998 73.2616 104.636C73.268 104.864 64.5199 112.791 63.2973 113.665C62.6489 114.128 62.4685 113.925 61.3736 111.508C60.7093 110.041 59.892 107.757 59.5577 106.432C59.223 105.107 58.8522 103.693 58.7333 103.29C58.5275 102.591 58.8011 102.57 64.6035 102.844C67.9509 103.002 71.1119 103.175 71.6274 103.229ZM128.489 106.442C130.833 106.583 132.752 106.732 132.752 106.774C132.752 107.632 129.091 115.48 128.05 116.854L127.351 117.777L123.829 113.877C121.892 111.732 119.788 109.415 119.154 108.727C118.29 107.791 118.07 107.257 118.278 106.6C118.54 105.773 118.717 105.737 121.391 105.954C122.95 106.082 126.144 106.301 128.489 106.442ZM86.1578 121.681C86.0559 123.323 85.8631 126.407 85.7295 128.536C85.5617 131.211 85.3357 132.407 84.9974 132.407C83.6063 132.407 74.6555 128.039 74.6555 127.36C74.6555 127.161 76.9564 124.925 79.7688 122.391C84.2154 118.384 84.9772 117.843 85.6125 118.24C86.247 118.636 86.3188 119.091 86.1578 121.681ZM109.513 124.026C112.043 126.84 114.113 129.262 114.113 129.408C114.113 130.035 107.091 132.695 103.479 133.435C102.564 133.622 102.561 133.609 102.774 130.335C102.891 128.527 103.097 125.316 103.232 123.199C103.43 120.08 103.602 119.318 104.135 119.176C104.498 119.08 104.821 118.981 104.854 118.956C104.887 118.93 106.984 121.212 109.513 124.026ZM127.596 129.524C127.269 129.651 126.02 130.524 124.82 131.464C121.025 134.438 120.726 134.636 117.286 136.457C110.821 139.878 104.077 141.559 96.6646 141.597C90.2483 141.63 85.2905 140.775 80.0091 138.725C75.7116 137.057 74.9768 136.936 74.0782 137.75C73.5682 138.212 73.2676 138.979 73.2676 139.819C73.2676 141.525 74.3137 142.189 79.971 144.07C85.5189 145.915 90.2154 146.698 95.728 146.698C105.266 146.698 112.993 144.668 121.648 139.888C124.45 138.34 129.345 134.662 130.168 133.486C131.059 132.212 130.899 130.979 129.724 130.054C128.618 129.183 128.532 129.162 127.596 129.524ZM63.9532 131.283C62.3915 132.513 62.6172 134.039 64.6146 135.75C66.3484 137.236 67.8633 137.555 68.9947 136.674C70.4294 135.557 69.8548 133.123 67.8208 131.705C66.1176 130.516 65.0715 130.403 63.9532 131.283Z" fill="#2B506E"/>
</svg>
