<svg width="194" height="198" viewBox="0 0 194 198" fill="none" xmlns="http://www.w3.org/2000/svg">
<path fill-rule="evenodd" clip-rule="evenodd" d="M127.542 11.7911C116.22 18.2761 106.47 24.1272 105.876 24.7937L104.796 26.0053V50.675C104.796 73.4787 104.86 75.4188 105.636 76.3189C107.131 78.0519 147.599 101.063 149.189 101.084C150.212 101.097 156.54 97.713 171.025 89.4076C182.243 82.9755 191.962 77.1993 192.622 76.5717L193.821 75.4303L193.958 51.4372C194.071 31.7213 193.976 27.1606 193.424 25.8563C192.829 24.4516 190.327 22.8767 171.623 12.1347C159.692 5.28256 149.979 0 149.312 0C148.647 0 139.125 5.15713 127.542 11.7911ZM150.656 9.33195C151.168 9.70681 151.423 10.1773 151.224 10.3772C151.024 10.5771 143.92 14.6852 135.437 19.5054C121.734 27.2928 119.888 28.2126 118.884 27.7546C118.263 27.4711 117.754 27.1082 117.754 26.9482C117.754 26.5935 148.502 8.75381 149.217 8.69326C149.496 8.66971 150.144 8.9571 150.656 9.33195ZM161.587 15.5968C162.664 16.4133 164.355 15.2969 145.953 25.914L131.678 34.1497L130.153 33.3596C128.99 32.757 128.79 32.4768 129.31 32.1784C143.543 24.0166 159.864 14.9029 160.227 14.9139C160.491 14.9221 161.103 15.2292 161.587 15.5968ZM175.877 23.8422C178.493 25.3253 180.712 26.6767 180.809 26.8458C180.906 27.0145 173.831 30.64 165.087 34.9023L149.189 42.6517L144.94 40.5194C142.602 39.3463 140.817 38.2597 140.972 38.1049C141.665 37.4105 169.895 21.2196 170.473 21.1846C170.829 21.1634 173.261 22.3591 175.877 23.8422ZM77.9206 23.1199C62.7062 24.8442 47.592 31.0692 35.4476 40.6131C31.0247 44.0891 23.3575 51.838 20.3546 55.8677C19.222 57.3873 18.051 58.6378 17.7529 58.6464C17.4544 58.6546 14.4679 57.9559 11.1152 57.0932L5.01968 55.5246L3.67639 56.5261C2.93779 57.0769 2.156 58.0462 1.93955 58.6801C1.64728 59.536 3.15951 65.7706 7.81474 82.9005C14.6464 108.04 14.6742 108.108 18.0774 108.15C19.4663 108.167 21.2189 106.533 36.7588 90.7292C52.8217 74.3927 53.9073 73.1802 53.9159 71.5703C53.9279 69.1717 52.5294 68.0664 47.9256 66.8375C45.8139 66.2738 43.8016 65.7115 43.4537 65.5885C43.0112 65.4318 43.4436 64.4754 44.8934 62.4017C54.3032 48.9478 70.6224 39.0334 87.9562 36.2402C93.0304 35.4223 94.9328 34.3929 95.9719 31.9025C96.9259 29.6159 96.7959 27.7729 95.5481 25.9024C93.7834 23.2573 91.8599 22.5792 86.3192 22.6503C83.6797 22.6845 79.9003 22.8954 77.9206 23.1199ZM67.8423 33.857C60.2874 37.1139 53.5214 41.7463 46.8501 48.2289C41.317 53.6051 39.3374 56.0369 35.4865 62.1888C31.6226 68.3609 31.9384 70.8508 36.742 72.0879C37.8779 72.3805 39.6181 72.8789 40.6096 73.1956L42.4122 73.7713L31.1523 85.0391C23.6152 92.5813 19.8104 96.0766 19.6429 95.6109C19.5056 95.2279 17.5936 88.2984 15.3941 80.2112L11.395 65.5068L15.683 66.5996C18.6245 67.3488 20.3172 67.5603 21.0721 67.2729C21.6777 67.0427 23.4102 65.166 24.923 63.1029C35.4663 48.7219 49.2093 38.7941 65.4427 33.8316C70.1046 32.4062 71.1806 32.4177 67.8423 33.857ZM116.314 47.8723V60.4837L117.48 61.4021C118.122 61.9077 121.555 63.6628 125.11 65.3035C132.155 68.5541 133.278 68.6829 135.039 66.442C135.919 65.3208 135.991 64.4754 135.991 55.2021C135.991 49.6869 136.103 45.1748 136.241 45.1748C136.378 45.1748 138.429 46.1503 140.8 47.3422L145.109 49.5096V69.6893C145.109 80.7883 144.972 89.8689 144.803 89.8689C144.635 89.8689 137.409 85.8143 128.745 80.858L112.994 71.8471L112.974 52.7516L112.955 33.6562L114.635 34.4582L116.314 35.2603V47.8723ZM185.549 71.6582C185.347 71.8514 178.704 75.7259 170.785 80.2688C162.867 84.8113 155.684 88.9568 154.823 89.4811L153.258 90.4341L153.383 69.93L153.508 49.426L169.585 41.5843L185.663 33.7431L185.789 52.5253C185.858 62.8554 185.75 71.465 185.549 71.6582ZM126.136 40.2175L127.832 41.0273V49.3553V57.6829L126.094 56.9553C125.138 56.5554 124.274 56.2282 124.174 56.2282C124.075 56.2282 123.993 52.4436 123.993 47.818C123.993 43.1924 124.094 39.4078 124.217 39.4078C124.339 39.4078 125.203 39.772 126.136 40.2175ZM165.229 102.836C164.813 103.081 156.984 110.95 147.832 120.325C133.146 135.368 131.192 137.547 131.192 138.872C131.192 141.216 132.771 142.358 137.791 143.645C140.232 144.271 142.23 144.947 142.23 145.147C142.23 146.068 137.362 152.036 133.405 155.967C123.898 165.41 112.062 171.441 98.1128 173.947C95.097 174.489 92.1306 175.26 91.5206 175.66C87.7883 178.109 87.9385 184.354 91.7836 186.582C95.8672 188.949 112.256 187.416 124.072 183.561C133.075 180.625 143.623 174.818 151.109 168.677C155.186 165.331 162.383 157.921 165.231 154.135C166.648 152.251 167.566 151.437 168.092 151.598C172.266 152.878 178.326 154.265 179.749 154.266C181.71 154.267 183.503 152.572 183.503 150.717C183.503 148.661 171.104 104.209 170.274 103.291C169.376 102.297 166.58 102.045 165.229 102.836ZM173.633 144.588C173.549 144.683 171.629 144.271 169.367 143.672C164.437 142.368 163.598 142.604 161.303 145.936C151.718 159.848 136.464 171.333 121.353 176.016C114.64 178.097 114.501 177.945 120.394 174.964C132.68 168.747 142.845 159.494 149.877 148.123C151.231 145.934 152.465 143.51 152.62 142.736C153.059 140.535 150.968 138.771 146.667 137.716C144.754 137.246 143.19 136.725 143.19 136.558C143.19 136.39 148.205 131.228 154.334 125.086L165.477 113.92L169.632 129.167C171.916 137.554 173.717 144.493 173.633 144.588ZM32.0882 118.711C17.2893 121.659 4.95442 133.415 1.08577 148.26C-0.943331 156.045 -0.0693958 166.643 3.21374 174.079C9.52422 188.367 24.2443 198 39.7669 198C62.5689 198 80.876 178.819 79.6723 156.189C78.7192 138.266 66.7332 123.614 49.4085 119.192C45.4055 118.17 36.0993 117.912 32.0882 118.711ZM49.432 127.569C59.2474 130.674 66.3195 137.561 70.0326 147.632C71.7675 152.338 72.1707 159.708 70.9848 165.046C68.4091 176.64 58.9805 186.215 47.246 189.155C42.9718 190.226 34.2272 189.885 29.9213 188.479C21.1148 185.604 13.568 178.43 10.1097 169.646C3.63367 153.198 12.0659 134.333 28.6937 128.07C35.2259 125.61 42.6704 125.43 49.432 127.569ZM36.9301 132.678C36.0173 133.764 35.6876 134.702 35.6876 136.212C35.6876 138.127 35.5383 138.363 33.526 139.637C29.3723 142.266 27.1412 147.283 28.0324 151.989C29.0316 157.265 32.4174 160.465 38.7524 162.122C40.2838 162.522 41.9481 163.223 42.4511 163.679C43.7642 164.869 43.6754 167.753 42.2865 169.026C39.8456 171.263 37.3836 170.794 35.4476 167.724C34.7685 166.646 33.6964 165.529 33.0658 165.241C30.9162 164.26 28.315 165.614 27.7103 168.027C27.0845 170.523 30.7041 175.743 34.0237 177.132C35.4193 177.716 35.5839 178.008 35.8028 180.291C36.2261 184.698 39.6512 186.416 42.4434 183.62C43.5948 182.467 43.851 181.799 43.8721 179.895C43.8971 177.669 43.9893 177.517 46.1398 176.133C52.4032 172.105 53.3266 162.444 47.9044 157.677C46.4901 156.433 41.736 154.267 40.4215 154.267C39.2064 154.267 36.7357 152.681 36.2342 151.578C35.4155 149.779 35.5647 148.697 36.8365 147.216C37.7392 146.165 38.3991 145.878 39.9176 145.878C42.2726 145.878 43.4988 146.886 44.2666 149.452C45.274 152.819 48.5586 153.917 50.8267 151.645C53.7465 148.722 50.3736 140.999 45.249 138.873C43.9672 138.341 43.8462 138.087 43.8462 135.925C43.8462 134.053 43.6 133.312 42.668 132.379C40.9336 130.642 38.5359 130.767 36.9301 132.678Z" fill="#2B506E"/>
</svg>
