<svg width="13" height="13" viewBox="0 0 13 13" fill="none" xmlns="http://www.w3.org/2000/svg">
<path fill-rule="evenodd" clip-rule="evenodd" d="M2.22735 0.0327052C1.96421 0.118064 1.62333 0.396594 0.999156 1.03612C0.312141 1.7401 0.124545 2.04601 0.0325961 2.61261C-0.291503 4.61038 1.84385 8.35761 4.5413 10.5246C6.74506 12.2951 9.22901 13.2813 10.5979 12.9292C11.0884 12.8031 11.3569 12.6102 12.0916 11.8556C12.968 10.9555 13.112 10.6416 12.9321 10.0233C12.8489 9.73718 12.7777 9.65096 11.842 8.70285C10.7019 7.54753 10.4675 7.37954 9.99484 7.37874C9.82435 7.37847 9.59691 7.41496 9.48942 7.45986C9.38197 7.50471 9.02254 7.80918 8.69067 8.13641C7.99175 8.82561 8.05405 8.81334 7.40489 8.38992C6.79835 7.99431 6.30472 7.5778 5.71792 6.96652C5.09953 6.32233 4.75591 5.88332 4.44956 5.34603L4.21929 4.94222L4.80513 4.35178C5.46904 3.68268 5.62731 3.42762 5.63117 3.0206C5.63594 2.51637 5.49713 2.31383 4.39209 1.21203C3.84018 0.66178 3.30522 0.169183 3.20335 0.117368C2.99398 0.0108966 2.44213 -0.0369538 2.22735 0.0327052ZM3.07548 0.888333C3.48048 1.21305 4.78567 2.5624 4.88646 2.76056C5.04591 3.07413 4.97117 3.20964 4.2128 3.98189C3.40349 4.80596 3.40542 4.79985 3.73901 5.46595C4.05501 6.0969 4.48259 6.66286 5.23061 7.44009C5.97693 8.21556 6.5313 8.66872 7.27531 9.11154C7.80544 9.42704 8.03786 9.50522 8.24942 9.43904C8.31832 9.4175 8.6792 9.10173 9.05133 8.73736C9.72586 8.07688 9.7287 8.07485 9.98363 8.07485H10.2393L11.2199 9.04584C11.7592 9.57986 12.2291 10.0859 12.2641 10.1702C12.3992 10.4962 12.3045 10.6672 11.5812 11.4035C10.7708 12.2283 10.6042 12.3238 9.98315 12.3191C9.00925 12.3117 7.75027 11.8492 6.35335 10.9856C4.67522 9.94814 2.98895 8.24696 1.95435 6.54771C0.872519 4.77086 0.428806 3.07724 0.836704 2.28184C0.964413 2.03272 1.99086 0.953116 2.26269 0.781969C2.52636 0.615912 2.77658 0.648652 3.07548 0.888333Z" fill="#F4F4EF"/>
</svg>
