<svg width="18" height="18" viewBox="0 0 18 18" fill="none" xmlns="http://www.w3.org/2000/svg">
<path d="M9 0C4.03407 0 0 4.03407 0 9C0 13.9659 4.03407 18 9 18C13.9659 18 18 13.9659 18 9C18 4.03407 13.9659 0 9 0ZM9 0.782609C13.543 0.782609 17.2174 4.45703 17.2174 9C17.2174 13.543 13.543 17.2174 9 17.2174C4.45703 17.2174 0.782609 13.543 0.782609 9C0.782609 4.45703 4.45703 0.782609 9 0.782609ZM5.08772 6.26087L3.50875 6.26163C3.50875 6.26163 3.41839 6.25654 3.30927 6.2708C3.20015 6.28507 3.03895 6.29169 2.87364 6.47869L2.87288 6.47945L2.87211 6.48021C2.72507 6.64837 2.73068 6.84407 2.74907 6.95177C2.76738 7.05906 2.80838 7.13918 2.80868 7.13978V7.14054C2.82386 7.17778 3.97032 9.98684 5.41559 11.4961C6.43504 12.5614 7.52533 12.913 8.49635 12.913H9C9.1657 12.913 9.31369 12.9055 9.47767 12.8206C9.64164 12.7356 9.78261 12.5012 9.78261 12.3192C9.78261 12.1231 9.78743 11.933 9.81242 11.827C9.83576 11.7281 9.82675 11.7524 9.83611 11.7521C9.84549 11.7542 9.86256 11.7581 9.89496 11.7728C9.96476 11.8043 10.0726 11.8748 10.1923 11.9676C10.4311 12.1531 10.7141 12.4222 11.0314 12.6303C11.4859 12.9315 11.9791 12.913 11.9791 12.913H13.6055L13.623 12.9115C13.623 12.9115 13.8726 12.9058 14.129 12.7487C14.2572 12.6702 14.4095 12.5261 14.4607 12.31C14.5118 12.094 14.4465 11.8674 14.3208 11.6681C14.2749 11.5949 14.052 11.2719 13.1622 10.4819C12.9323 10.278 12.7756 10.1337 12.7136 10.057C12.6916 10.0297 12.6897 10.0324 12.6853 10.031C12.6905 10.0176 12.7419 9.90936 12.8794 9.73064C13.0228 9.54437 13.2406 9.28485 13.5206 8.92816C13.8776 8.47339 14.1281 8.0361 14.2857 7.66712C14.3645 7.48263 14.4203 7.31522 14.4538 7.16347C14.4873 7.01171 14.514 6.88557 14.4645 6.70567C14.4276 6.57175 14.3274 6.45181 14.2291 6.3885C14.1309 6.32519 14.0393 6.30134 13.957 6.28609C13.7926 6.25558 13.6475 6.26087 13.5122 6.26087C13.229 6.26087 11.9699 6.2708 11.866 6.2708C11.744 6.2708 11.5494 6.3216 11.4594 6.37322C11.2359 6.50123 11.1659 6.67663 11.1659 6.67663L11.1445 6.71408L11.1323 6.75611C11.1323 6.75611 10.8456 7.68358 10.5507 8.1616H10.5499C10.2032 8.72473 9.9445 8.9481 9.83076 9.01146C9.81868 9.01819 9.82537 9.01462 9.817 9.01911C9.8081 8.9932 9.79688 8.95752 9.78949 8.89147C9.77285 8.74269 9.78261 8.53316 9.78261 8.3305C9.78261 7.76921 9.82476 7.4192 9.77802 7.08781C9.75465 6.92211 9.69516 6.73758 9.55944 6.59562C9.42373 6.45366 9.24842 6.38378 9.07337 6.34341H9.07261C8.89017 6.3014 8.69356 6.26531 8.22121 6.26087C7.61939 6.25526 7.22744 6.27392 6.87916 6.42901L6.87534 6.4313L6.87228 6.43283C6.73467 6.49747 6.62619 6.57156 6.53066 6.67052C6.48289 6.71999 6.42622 6.75602 6.38697 6.91355C6.36735 6.99232 6.3652 7.14134 6.45423 7.26206C6.54326 7.38278 6.66803 7.41919 6.74159 7.42867C6.72802 7.42691 6.79947 7.44263 6.8547 7.46994C6.90994 7.49725 6.9579 7.53657 6.97011 7.55248V7.55324C6.965 7.54661 7.01804 7.67842 7.03201 7.79857C7.04598 7.91872 7.04348 8.01562 7.04348 8.01562L7.04271 8.03932L7.04501 8.06301C7.04501 8.06301 7.06903 8.32889 7.05647 8.60335C7.05019 8.74058 7.03284 8.8787 7.00985 8.96332C7.00863 8.96779 7.00808 8.96622 7.00679 8.97019C6.90882 8.90177 6.68291 8.66336 6.37169 8.14937C6.08399 7.67391 5.81454 6.81878 5.81454 6.81878L5.80842 6.79968L5.80155 6.78133C5.80155 6.78133 5.75131 6.59031 5.52947 6.43436C5.32154 6.28798 5.12364 6.26775 5.12364 6.26775L5.08772 6.26087ZM4.99677 7.04348C5.01916 7.05166 5.06595 7.06852 5.07473 7.07252L5.06556 7.04501C5.06556 7.04501 5.07761 7.07267 5.07779 7.07328C5.07788 7.07334 5.07927 7.07401 5.07931 7.07405V7.07481H5.08008C5.06041 7.06105 5.07708 7.07471 5.07931 7.07787C5.09012 7.11474 5.32905 7.93777 5.70219 8.55443C6.04211 9.11581 6.29324 9.4303 6.56734 9.61829C6.84118 9.8061 7.2094 9.78674 7.39657 9.68937C7.6467 9.55947 7.71662 9.34597 7.76495 9.16814C7.81327 8.99031 7.83051 8.80989 7.83832 8.63927C7.85321 8.31371 7.82773 8.04738 7.82532 8.02098C7.82571 8.00627 7.8292 7.87907 7.80927 7.70763C7.78919 7.53487 7.75319 7.32019 7.59986 7.10462C7.7716 7.0791 7.86695 7.04025 8.21357 7.04348C8.6556 7.04764 8.72284 7.06608 8.89682 7.10615C8.99157 7.128 9.00209 7.1461 8.99312 7.13672C8.98415 7.12734 8.99234 7.12107 9.00306 7.1971C9.02451 7.34912 9 7.73901 9 8.3305C9 8.49724 8.9839 8.73237 9.01146 8.9786C9.03901 9.22468 9.11592 9.53955 9.41347 9.72376C9.583 9.82868 9.90687 9.86477 10.2121 9.69472C10.5174 9.52467 10.8306 9.19845 11.2164 8.57201C11.5974 7.95436 11.8253 7.14231 11.8499 7.05647C11.8499 7.05647 11.8543 7.05364 11.8568 7.05189C11.8637 7.05222 11.8549 7.05341 11.866 7.05341C12.0109 7.05341 13.2476 7.04348 13.5122 7.04348C13.585 7.04348 13.617 7.0474 13.6712 7.04959C13.6493 7.13408 13.6198 7.23246 13.5657 7.35912C13.4386 7.65682 13.2203 8.04296 12.9046 8.44514C12.6326 8.79163 12.4212 9.04294 12.2596 9.25297C12.098 9.463 11.971 9.62867 11.918 9.86821C11.8649 10.1077 11.9661 10.3779 12.1044 10.5492C12.2428 10.7204 12.414 10.8647 12.6425 11.0673C13.5034 11.8316 13.6446 12.063 13.6582 12.0846V12.0853C13.6727 12.1084 13.6633 12.0852 13.6689 12.0968C13.6201 12.112 13.562 12.1292 13.5566 12.1304H11.973H11.9707C11.9707 12.1304 11.6794 12.1209 11.4632 11.9776L11.4625 11.9768H11.4617C11.233 11.827 10.9565 11.5701 10.6722 11.3494C10.5301 11.239 10.3853 11.1356 10.2175 11.0597C10.0496 10.9838 9.83686 10.93 9.61294 10.997C9.28884 11.094 9.10898 11.4025 9.05121 11.6474C9.00974 11.8232 9.01587 11.9762 9.01452 12.1297C9.00336 12.1303 9.01302 12.1304 9 12.1304H8.49635C7.70102 12.1304 6.87361 11.8876 5.98115 10.955C4.82086 9.74334 3.78566 7.40019 3.63026 7.04424L4.99677 7.04348ZM11.8224 7.04654C11.8153 7.04812 11.8357 7.04965 11.8522 7.05112C11.85 7.05234 11.8524 7.05004 11.8492 7.05189C11.8489 7.04535 11.832 7.04441 11.8224 7.04654Z" fill="#F4F4EF"/>
</svg>
