<svg width="200" height="152" viewBox="0 0 200 152" fill="none" xmlns="http://www.w3.org/2000/svg">
<path fill-rule="evenodd" clip-rule="evenodd" d="M64.7783 0.29228C57.6296 1.77614 51.0818 4.82848 46.8576 8.64636C45.2344 10.1135 45.2078 12.6534 46.7999 14.1543L47.8478 15.1422C50.0493 17.2174 52.0424 18.9886 52.2773 19.0786C52.5128 19.1682 53.6089 18.469 54.7138 17.5244C57.7995 14.8863 62.4123 12.9051 66.8227 12.324C68.9493 12.0436 71.2345 11.862 71.901 11.9206C73.0833 12.0249 73.1261 11.9053 73.7153 6.8614C74.0473 4.02013 74.3335 1.30825 74.3517 0.834459C74.3803 0.0733422 73.8837 -0.0201368 70.0739 0.0305388C67.7034 0.0620265 65.3202 0.179613 64.7783 0.29228ZM125.616 0.486618C125.616 1.45093 126.624 9.87684 126.899 11.2141C127.091 12.1499 127.359 12.3132 128.31 12.0751C128.955 11.9132 131.192 12.0185 133.279 12.3083C137.567 12.9041 141.827 14.756 145.132 17.4605C146.327 18.4385 147.491 19.1657 147.719 19.0772C147.947 18.9881 149.947 17.2258 152.165 15.1609L153.22 14.1774C154.82 12.6869 154.801 10.146 153.179 8.67982C149.968 5.77753 144.785 2.9525 139.766 1.36729C135.855 0.132874 125.616 -0.50426 125.616 0.486618ZM81.7734 2.09938C81.7734 2.18597 80.9158 4.68924 79.8675 7.66237L79.1282 9.75889C78.4593 11.6559 79.2907 13.7557 81.0769 14.6807C85.4823 16.9621 89.1606 20.7307 91.402 25.2601L91.601 25.6622C92.6129 27.7071 94.697 29.0012 96.9786 29.0012H100H103.021C105.303 29.0012 107.387 27.7071 108.399 25.6621L108.588 25.2797C110.83 20.7504 114.52 16.9606 118.897 14.694C120.691 13.7651 121.517 11.65 120.829 9.75098L120.595 9.1049C119.804 6.92388 118.937 4.42012 118.668 3.54043C118.4 2.66124 118.108 1.94145 118.02 1.94145C117.932 1.94145 116.778 2.41376 115.457 2.99087C110.259 5.26192 103.805 10.4367 100.858 14.6969C100.449 15.2882 99.5831 15.3118 99.1425 14.7438L98.9153 14.4509C95.0877 9.51621 89.7665 5.27275 84.5434 2.99087C82.101 1.92423 81.7734 1.81845 81.7734 2.09938ZM37.8034 20.3696C36.1069 23.8244 34.4828 30.1918 34.4828 33.3883C34.4828 34.7695 35.6024 35.8891 36.9836 35.8891H40.3305H43.084C44.8462 35.8891 46.3272 34.5653 46.5241 32.8141C46.7148 31.1232 47.4296 28.3399 48.1133 26.6298C48.797 24.9196 49.2793 23.4598 49.1857 23.3856C48.7695 23.0574 39.4458 17.6853 39.2926 17.6853C39.1985 17.6853 38.5286 18.8931 37.8034 20.3696ZM155.552 20.5418C152.916 22.0828 150.755 23.5213 150.749 23.7393C150.743 23.9573 151.215 25.1749 151.797 26.4453C152.379 27.7156 153.088 30.3606 153.373 32.3222C153.67 34.37 155.426 35.8891 157.495 35.8891H159.704H163.016C164.398 35.8891 165.517 34.7695 165.517 33.3883C165.517 30.1918 163.893 23.8244 162.197 20.3696C161.471 18.8931 160.759 17.6976 160.612 17.7128C160.465 17.7281 158.188 19.0014 155.552 20.5418ZM94.0887 37.0547V39.2999C94.0887 40.3799 93.307 41.3012 92.2414 41.4772C91.2256 41.645 89.5074 41.7886 88.4236 41.797C85.7079 41.8172 74.5325 43.4998 69.4581 44.6525C53.699 48.2323 39.8916 53.9168 26.3547 62.3988C17.3719 68.0272 8.06897 75.3875 2.0936 81.5945C0.19064 83.5708 0 83.9969 0 86.2694C0 87.862 0.633184 89.4026 1.76005 90.5281L31.6547 120.385C63.2217 151.912 63.3148 152 65.3256 152C67.4645 152 68.168 151.593 73.2369 147.425C89.2665 134.243 113.833 134.961 128.818 149.049C131.35 151.43 132.509 152 134.816 152C136.64 152 137.554 151.138 168.345 120.385L198.436 90.332C199.437 89.3323 199.999 87.9749 199.997 86.5602C199.993 83.6983 199.268 82.6725 193.596 77.4947C172.934 58.6326 148.075 46.9069 119.951 42.7564C116.429 42.2368 112.66 41.8049 111.576 41.797C110.493 41.7886 108.775 41.645 107.759 41.4772C106.693 41.3012 105.911 40.3799 105.911 39.2999V37.0547C105.911 34.7806 104.068 32.9371 101.794 32.9371H100H98.2062C95.9321 32.9371 94.0887 34.7806 94.0887 37.0547ZM94.0887 57.5369C94.0887 59.7107 95.8509 61.4729 98.0246 61.4729H100H101.902C104.116 61.4729 105.911 59.6776 105.911 57.4631C105.911 55.2913 107.746 53.5712 109.913 53.711L110.961 53.7786C128.353 54.8993 148.403 61.2682 164.513 70.7898C169.99 74.0261 179.331 80.732 183.884 84.6955C184.892 85.5729 184.945 87.1209 183.999 88.0649L159.989 112.027L136.325 135.644C135.107 136.86 133.199 137.045 131.77 136.086C124.93 131.498 118.846 128.805 111.33 127.039C108.528 126.38 105.672 126.181 99.5074 126.213C92.3862 126.25 90.7828 126.415 86.5631 127.541C80.9709 129.033 74.0798 132.167 69.1975 135.438C67.2052 136.773 64.5471 136.515 62.8496 134.821L40.0103 112.027L16.0009 88.0649C15.0551 87.1209 15.1078 85.5729 16.1158 84.6955C23.0527 78.6573 35.0128 70.5994 42.8571 66.6797C57.7236 59.2505 76.9502 54.0615 91.0098 53.6836C92.6967 53.6383 94.0887 54.9934 94.0887 56.6809V57.5369ZM94.0887 82.1367V90.4932C94.0887 93.7579 96.7353 96.4045 100 96.4045C103.265 96.4045 105.911 93.7579 105.911 90.4932V82.1367V73.7801C105.911 70.5154 103.265 67.8688 100 67.8688C96.7353 67.8688 94.0887 70.5154 94.0887 73.7801V82.1367ZM94.0887 110.672V112.633C94.0887 115.898 96.7353 118.544 100 118.544C103.265 118.544 105.911 115.898 105.911 112.633V110.672V108.712C105.911 105.447 103.265 102.8 100 102.8C96.7353 102.8 94.0887 105.447 94.0887 108.712V110.672Z" fill="#2B506E"/>
</svg>
